<svg width="71" height="70" viewBox="0 0 71 70" fill="none" xmlns="http://www.w3.org/2000/svg">
<circle cx="35.5" cy="35" r="35" fill="white"/>
<path fill-rule="evenodd" clip-rule="evenodd" d="M29.4471 18.0695C30.2065 18.8289 30.2065 20.06 29.4471 20.8194L24.9887 25.2778H51.4055C52.4794 25.2778 53.35 26.1483 53.35 27.2222C53.35 28.2961 52.4794 29.1667 51.4055 29.1667H24.9887L29.4471 33.6251C30.2065 34.3844 30.2065 35.6156 29.4471 36.3749C28.6878 37.1342 27.4566 37.1342 26.6973 36.3749L18.9195 28.5972C18.1601 27.8378 18.1601 26.6067 18.9195 25.8473L26.6973 18.0695C27.4566 17.3102 28.6878 17.3102 29.4471 18.0695ZM42.2528 33.6251C43.0121 32.8658 44.2434 32.8658 45.0027 33.6251L52.7804 41.4029C53.5398 42.1622 53.5398 43.3934 52.7804 44.1527L45.0027 51.9305C44.2434 52.6898 43.0121 52.6898 42.2528 51.9305C41.4935 51.1712 41.4935 49.9399 42.2528 49.1806L46.7113 44.7222H21.2666C20.1928 44.7222 19.3222 43.8517 19.3222 42.7778C19.3222 41.7039 20.1928 40.8333 21.2666 40.8333H46.7113L42.2528 36.3749C41.4935 35.6156 41.4935 34.3844 42.2528 33.6251Z" fill="#006729"/>
</svg>
