<svg width="67" height="63" viewBox="0 0 67 63" fill="none" xmlns="http://www.w3.org/2000/svg">
<path fill-rule="evenodd" clip-rule="evenodd" d="M41.2256 33.8531L46.114 33.835V33.8337H46.3706L51.3321 33.8156L51.5153 33.8144L56.5262 33.795H56.6662L61.6965 33.7769H61.8128L66.8593 33.7591C66.9174 33.0016 66.9471 32.2381 66.9471 31.4659C66.9471 31.3303 66.9471 31.1945 66.9456 31.0588C66.9353 30.3401 66.8993 29.6259 66.8396 28.9191C66.6996 27.2685 66.4225 25.6507 66.0212 24.0806C65.5934 22.4121 65.0256 20.7973 64.3321 19.2451C63.6015 17.6198 62.7296 16.0617 61.7321 14.5885C61.7209 14.5722 61.71 14.5556 61.6987 14.5389L61.6803 14.5115C61.6587 14.4791 61.6368 14.4463 61.6143 14.4141C60.4246 12.6815 59.059 11.0667 57.5384 9.589C57.2225 9.27887 56.8975 8.97469 56.5634 8.67647C54.9831 7.25997 53.2553 5.98809 51.4037 4.88172C51.3828 4.86931 51.3618 4.85675 51.3409 4.84419C51.2993 4.81897 51.2575 4.79378 51.2156 4.76991C49.6415 3.84397 47.9806 3.03878 46.2468 2.36632C44.5934 1.72367 42.87 1.20328 41.0959 0.815609C39.4246 0.448809 37.7071 0.202784 35.9493 0.0834991C35.1428 0.0283298 34.3287 0 33.509 0C32.5981 0 31.6959 0.0342978 30.8045 0.101396C29.0468 0.232609 27.3308 0.493541 25.6611 0.870778C23.8885 1.27187 22.1725 1.80717 20.5221 2.46174C18.7987 3.14762 17.1498 3.96175 15.5859 4.89812C15.5524 4.91825 15.5196 4.93803 15.4868 4.95778C15.454 4.97753 15.4212 4.99728 15.3876 5.01741C13.5464 6.13869 11.8275 7.424 10.2576 8.85391C9.93261 9.15062 9.61358 9.45184 9.30199 9.76197C7.79474 11.2501 6.44105 12.8768 5.26477 14.6198C5.22152 14.6825 5.1798 14.7436 5.13955 14.8047C4.15855 16.2809 3.3028 17.842 2.59018 19.4688C1.90439 21.0254 1.35129 22.6462 0.939818 24.3162C0.549215 25.8878 0.286825 27.5071 0.160103 29.1607C0.10196 29.9196 0.0721436 30.6905 0.0721436 31.4644C0.0721436 32.3187 0.107924 33.1641 0.179485 34.0006C0.318134 35.6528 0.59394 37.2691 0.994978 38.8375C1.42285 40.5062 1.98788 42.1209 2.68411 43.6731C3.41164 45.2984 4.2823 46.855 5.27671 48.3281C5.30811 48.3753 5.34152 48.4234 5.37446 48.4709L5.39746 48.5041C6.58567 50.2369 7.95127 51.8531 9.47195 53.3306C9.78799 53.6409 10.1115 53.945 10.4455 54.2403C12.0273 55.6584 13.7566 56.9331 15.6083 58.0394C15.6402 58.0587 15.6661 58.0781 15.692 58.0978C15.7145 58.1147 15.737 58.1316 15.7633 58.1484H15.7887C17.366 59.0744 19.0283 59.8825 20.7636 60.555C22.417 61.1991 24.1374 61.7194 25.9145 62.1072C27.5858 62.4741 29.3032 62.7216 31.0609 62.8406C31.8318 62.8959 32.6115 62.9228 33.3971 62.9244H33.4031H33.4075H33.4121H33.5075C33.6506 62.9244 33.7953 62.9244 33.9396 62.9228C34.7 62.9122 35.4559 62.8794 36.2059 62.8228C37.9606 62.6916 39.6765 62.4322 41.3462 62.055C43.119 61.6537 44.835 61.1216 46.4853 60.4669C48.219 59.7797 49.8768 58.9594 51.4468 58.0187H51.4856L51.4943 58.0106C51.5371 57.9719 51.5668 57.945 51.6212 57.9128C53.4056 56.8275 55.0721 55.5884 56.6025 54.2112C56.1131 54.49 55.5909 54.5197 55.255 54.2384C54.765 53.8281 54.8559 52.9119 55.4584 52.1919C56.0609 51.4719 56.9468 51.2206 57.4368 51.6309C57.8134 51.9462 57.8468 52.56 57.569 53.1541L57.7234 53.1534C59.2306 51.6669 60.5828 50.0416 61.759 48.2984L61.7815 48.265L61.814 48.2166C61.8321 48.1894 61.8506 48.1622 61.8693 48.1344C62.8578 46.6522 63.7165 45.0837 64.4321 43.4481L61.8499 43.4584L58.7684 43.4687L56.705 43.4762L52.8762 43.4909C52.775 43.6934 52.6337 43.9362 52.4443 44.2322C52.0678 44.6353 51.784 44.9109 51.5662 45.0916V45.0941C50.5478 46.29 49.4075 47.3741 48.1446 48.3506H48.1356C47.5915 48.7709 47.0249 49.1662 46.439 49.5375C44.8559 50.5453 43.1325 51.37 41.3046 51.9859C39.6675 52.5359 37.9471 52.9194 36.164 53.11L36.1656 53.2337L34.2484 53.2397C34.2453 53.2397 34.2421 53.24 34.239 53.24C34.2356 53.24 34.2321 53.2403 34.229 53.2406L34.2215 53.2409C34.2175 53.2412 34.2137 53.2412 34.2096 53.2412C33.9756 53.2487 33.7384 53.2531 33.5015 53.2531C33.3015 53.2531 33.1034 53.2519 32.905 53.2456H32.8796H32.8753L31.0207 53.2519L31.0192 53.1294C29.2331 52.9491 27.5112 52.5806 25.8698 52.0394C24.0345 51.44 22.3081 50.6244 20.7159 49.63C20.1255 49.2662 19.556 48.8725 19.0074 48.455C17.7402 47.4962 16.5788 46.4137 15.5516 45.2269C15.1059 44.7141 14.684 44.1816 14.2904 43.63C13.2214 42.1403 12.3448 40.5197 11.6948 38.7987C11.1089 37.2587 10.7019 35.6394 10.4991 33.9619H10.362L10.3515 31.6403V31.6166V31.6119C10.35 31.5656 10.35 31.5181 10.35 31.4687C10.35 31.4628 10.35 31.4569 10.3515 31.4509C10.35 31.4494 10.3515 31.445 10.3515 31.4434V31.4331C10.3509 31.4303 10.3508 31.4275 10.351 31.425L10.3512 31.4212C10.3514 31.4191 10.3515 31.4172 10.3515 31.415C10.3506 31.4084 10.3509 31.4028 10.3512 31.3969L10.3514 31.3928L10.3515 31.3884V31.3869L10.3411 29.1234H10.4827C10.6721 27.4445 11.0657 25.8207 11.6411 24.2789C12.2822 22.5538 13.1484 20.9255 14.2054 19.4285C14.5915 18.8813 15 18.3579 15.4398 17.848V17.8435C16.4625 16.6402 17.6239 15.5413 18.8941 14.5706C19.4323 14.1546 19.9899 13.7655 20.5654 13.3987C22.1486 12.3937 23.872 11.5691 25.6998 10.9533C27.3368 10.4031 29.0572 10.0199 30.8403 9.82906V9.68741L35.9853 9.66653V9.80819C37.7712 9.98862 39.4931 10.3569 41.1346 10.8982C42.97 11.4976 44.6978 12.3132 46.29 13.3077C46.8684 13.6686 47.4306 14.0532 47.9715 14.4648C49.2509 15.4265 50.4181 16.5165 51.4512 17.7123C51.8924 18.2193 52.3084 18.7441 52.7006 19.2869C53.7681 20.7779 54.6478 22.3987 55.3021 24.1194L51.4796 24.1343L49.7456 24.1403L46.3346 24.1522L43.7659 24.1597L41.1896 24.1701L41.1793 21.7441L41.169 19.3286L41.1593 17.0795H30.8139V44.3447H41.269L41.2659 43.5344L41.2553 41.1116L41.2465 38.6944L41.2256 33.8531Z" fill="#00451C"/>
</svg>
