<svg width="71" height="70" viewBox="0 0 71 70" fill="none" xmlns="http://www.w3.org/2000/svg">
<circle cx="35.5" cy="35" r="35" fill="white"/>
<path d="M28.15 35.35C31.5352 35.35 34.275 32.6101 34.275 29.225C34.275 25.8398 31.5352 23.1 28.15 23.1C24.7649 23.1 22.025 25.8398 22.025 29.225C22.025 32.6101 24.7649 35.35 28.15 35.35ZM32.35 37.1H31.8961C30.7586 37.6468 29.4953 37.975 28.15 37.975C26.8047 37.975 25.5469 37.6468 24.4039 37.1H23.95C20.4719 37.1 17.65 39.9219 17.65 43.4V44.975C17.65 46.4242 18.8258 47.6 20.275 47.6H36.025C37.4742 47.6 38.65 46.4242 38.65 44.975V43.4C38.65 39.9219 35.8281 37.1 32.35 37.1ZM43.9 35.35C46.7985 35.35 49.15 32.9984 49.15 30.1C49.15 27.2015 46.7985 24.85 43.9 24.85C41.0016 24.85 38.65 27.2015 38.65 30.1C38.65 32.9984 41.0016 35.35 43.9 35.35ZM46.525 37.1H46.3172C45.5571 37.3625 44.7531 37.5375 43.9 37.5375C43.0469 37.5375 42.243 37.3625 41.4828 37.1H41.275C40.1594 37.1 39.1313 37.4226 38.2289 37.9422C39.5633 39.3804 40.4 41.289 40.4 43.4V45.5C40.4 45.6203 40.3727 45.7351 40.3672 45.85H50.025C51.4742 45.85 52.65 44.6742 52.65 43.225C52.65 39.8398 49.9102 37.1 46.525 37.1Z" fill="#006729"/>
</svg>
