<svg width="71" height="70" viewBox="0 0 71 70" fill="none" xmlns="http://www.w3.org/2000/svg">
<circle cx="35.5" cy="35" r="35" fill="white"/>
<path d="M35.1262 17.5L17.6499 23.7776V52.5H52.6024V23.7776L35.1262 17.5ZM35.1262 19.1147L51.0827 24.8461V26.2708L35.1262 20.5393L19.1696 26.2708V24.8461L35.1262 19.1147ZM19.1696 28.1852H20.6893V29.7049H19.1696V28.1852ZM49.5631 28.1852H51.0827V29.7049H49.5631V28.1852ZM23.7286 30.4647H25.2483V36.5434H27.3616C26.9965 36.1398 26.7679 35.6114 26.7679 35.0237C26.7679 33.7653 27.789 32.7442 29.0475 32.7442C30.3059 32.7442 31.327 33.7653 31.327 35.0237C31.327 35.6114 31.0984 36.1398 30.7333 36.5434H32.8466V32.7442H39.6852C41.7836 32.7442 43.4844 34.445 43.4844 36.5434H45.004V30.4647H46.5237V50.9803H45.004V49.4606H25.2483V50.9803H23.7286V30.4647ZM19.1696 31.2246H20.6893V32.7442H19.1696V31.2246ZM49.5631 31.2246H51.0827V32.7442H49.5631V31.2246ZM19.1696 34.2639H20.6893V35.7836H19.1696V34.2639ZM49.5631 34.2639H51.0827V35.7836H49.5631V34.2639ZM19.1696 37.3033H20.6893V38.8229H19.1696V37.3033ZM49.5631 37.3033H51.0827V38.8229H49.5631V37.3033ZM25.2483 38.0631V47.941H27.3616C26.9965 47.5373 26.7679 47.009 26.7679 46.4213C26.7679 45.1628 27.789 44.1418 29.0475 44.1418C30.3059 44.1418 31.327 45.1628 31.327 46.4213C31.327 47.009 31.0984 47.5373 30.7333 47.941H32.8466V44.1418H39.6852C41.7836 44.1418 43.4844 45.8425 43.4844 47.941H45.004V38.0631H25.2483ZM19.1696 40.3426H20.6893V41.8623H19.1696V40.3426ZM49.5631 40.3426H51.0827V41.8623H49.5631V40.3426ZM19.1696 43.382H20.6893V44.9016H19.1696V43.382ZM49.5631 43.382H51.0827V44.9016H49.5631V43.382ZM19.1696 46.4213H20.6893V47.941H19.1696V46.4213ZM49.5631 46.4213H51.0827V47.941H49.5631V46.4213ZM19.1696 49.4606H20.6893V50.9803H19.1696V49.4606ZM49.5631 49.4606H51.0827V50.9803H49.5631V49.4606Z" fill="#006729"/>
</svg>
